<svg xmlns="http://www.w3.org/2000/svg" width="538.309" height="739.81" viewBox="0 0 538.309 739.81"><path fill="#FFF" d="M259.795 60.114l-.335.255 43.636 57.271L16.743 335.817l43.635 57.27L191.285 564.9l43.635 57.27 286.688-218.431z"/><path fill="#231F20" d="M234.541 624.973L13.94 335.438l286.353-218.177-43.637-57.272 3.519-2.677 1.211 1.59 263.025 345.216-289.87 220.855zM19.545 336.196l215.753 283.172L518.806 403.36 303.052 120.188 19.545 336.196z"/><path fill="#009DDC" d="M521.608 403.739L234.92 622.17c24.1 31.63 17.994 76.808-13.635 100.906l57.271-43.635 57.271-43.636 172.146-131.161c31.63-24.099 37.734-69.275 13.635-100.905z"/><path fill="#231F20" d="M222.497 724.667l-2.424-3.182c14.873-11.331 24.442-27.776 26.946-46.306s-2.357-36.925-13.689-51.798l-1.212-1.591 289.87-220.855 1.212 1.591c24.729 32.456 18.441 78.98-14.015 103.709L222.497 724.667zm15.205-102.102c11.126 15.431 15.838 34.225 13.28 53.15-1.53 11.328-5.56 21.92-11.727 31.154L506.76 503.054c30.169-22.987 36.435-65.882 14.446-96.495L237.702 622.565z"/><path fill="#FFF" d="M234.92 622.17l-43.635-57.27-57.271 43.636c-31.63 24.1-37.734 69.276-13.635 100.906 24.1 31.63 69.276 37.735 100.906 13.635 31.629-24.099 37.735-69.277 13.635-100.907z"/><path fill="#231F20" d="M177.704 739.81h-.001c-23.323 0-44.797-10.627-58.915-29.156-24.729-32.456-18.442-78.98 14.014-103.709l58.862-44.848 44.847 58.861c11.979 15.723 17.119 35.169 14.472 54.757-2.646 19.589-12.764 36.974-28.486 48.952-13.001 9.907-28.492 15.143-44.793 15.143zm13.202-172.107l-55.68 42.424c-30.702 23.393-36.648 67.401-13.256 98.104 13.354 17.527 33.668 27.58 55.733 27.58 15.419.001 30.071-4.953 42.371-14.324 14.873-11.332 24.442-27.776 26.946-46.306s-2.357-36.925-13.689-51.798l-42.425-55.68z"/><path fill="#963D97" d="M466.75 332.411l54.55 71.586-286.344 218.196-54.55-71.586z"/><path fill="#231F20" d="M234.541 624.973l-56.968-74.77 289.536-220.602 56.968 74.771-289.536 220.601zm-51.363-74.012l52.121 68.406 283.172-215.753-52.12-68.407-283.173 215.754z"/><path fill="#E03A3E" d="M412.18 260.8l54.54 71.585-286.345 218.16-54.54-71.586z"/><path fill="#231F20" d="M179.997 553.385l-56.968-74.771 289.535-220.601 56.969 74.77-289.536 220.602zm-51.363-74.012l52.121 68.407 283.172-215.754-52.121-68.407-283.172 215.754z"/><g><path fill="#F5821F" d="M357.635 189.215l54.54 71.585L125.83 478.96l-54.54-71.585z"/><path fill="#231F20" d="M125.452 481.796l-56.968-74.77L358.02 186.425l56.968 74.77-289.536 220.601zM74.09 407.785l52.12 68.406 283.172-215.753-52.12-68.407L74.09 407.785z"/></g><g><path fill="#FDB827" d="M303.092 117.632l54.54 71.586-286.343 218.16-54.54-71.587z"/><path fill="#231F20" d="M70.908 410.208l-56.968-74.77 289.535-220.601 56.969 74.77L70.908 410.208zm-51.363-74.012l52.121 68.407 283.172-215.754-52.121-68.407L19.545 336.196z"/></g><g><path fill="#61BB46" d="M259.46 60.369L30.378 234.911c-31.631 24.1-37.735 69.276-13.635 100.906L303.096 117.64 259.46 60.369z"/><path fill="#231F20" d="M16.364 338.62l-1.212-1.591C3.172 321.306-1.967 301.86.679 282.272c2.647-19.588 12.764-36.973 28.487-48.952L259.839 57.566l46.06 60.453L16.364 338.62zM259.081 63.171L31.59 236.501c-14.873 11.332-24.443 27.777-26.946 46.306-2.415 17.868 2.02 35.609 12.5 50.189L300.293 117.26l-41.212-54.089z"/></g><g><path fill="#FFF" d="M417.638 30.369c-24.1-31.63-69.276-37.735-100.906-13.635L30.378 234.911c31.629-24.099 76.807-17.995 100.906 13.635 24.099 31.63 17.994 76.808-13.635 100.906l286.353-218.177c31.63-24.1 37.734-69.276 13.636-100.906z"/><path fill="#231F20" d="M118.861 351.043l-2.424-3.182c30.702-23.392 36.648-67.401 13.256-98.104-13.354-17.527-33.669-27.58-55.733-27.58-15.42 0-30.071 4.953-42.37 14.324l-2.424-3.182L315.52 15.143C328.521 5.236 344.011 0 360.313 0c23.323 0 44.797 10.627 58.915 29.157 24.729 32.456 18.441 78.98-14.015 103.709L118.861 351.043zM73.96 218.178c23.324 0 44.797 10.627 58.915 29.156 19.636 25.772 19.716 60.415 2.666 85.972L402.79 129.684c30.701-23.393 36.648-67.401 13.257-98.104C402.692 14.053 382.378 4 360.313 4c-15.42 0-30.071 4.953-42.37 14.324L50.776 221.883c7.401-2.447 15.196-3.705 23.184-3.705z"/></g></svg>