<svg xmlns="http://www.w3.org/2000/svg" width="720" height="720" viewBox="0 0 720 720"><path fill="#009DDC" d="M608.727 432.816l-3.885-6.729-6.02-10.426-312.726 180.554 6.02 10.428c19.942 34.543 8.108 78.711-26.436 98.656l62.545-36.111 62.546-36.111 188.003-108.543c32.265-18.632 44.711-58.401 29.953-91.718z"/><path fill="#963D97" d="M556.7 342.687l42.13 72.967-312.716 180.553-42.129-72.967L556.7 342.687z"/><path fill="#E03A3E" d="M514.573 269.718l42.129 72.967-312.718 180.553-42.129-72.967 312.718-180.553z"/><path fill="#F5821F" d="M472.44 196.748l42.129 72.969-312.718 180.55-42.129-72.967L472.44 196.748z"/><path fill="#61BB46" d="M137.997 195.258c-34.543 19.943-46.378 64.112-26.437 98.657l6.02 10.425 124.209-71.713a72.51 72.51 0 0 0-5.138-10.932c-19.942-34.546-64.112-46.381-98.654-26.437z"/><path fill="#FDB827" d="M241.789 232.625L117.58 304.339l42.129 72.968 312.727-180.554-12.037-20.848-250.181 144.444c30.988-17.894 43.684-55.28 31.571-87.724z"/><path fill="#FFF" d="M549.381 41.139C529.437 6.595 485.268-5.24 450.723 14.704l-62.545 36.11-250.181 144.444c34.543-19.944 78.713-8.109 98.655 26.435a72.741 72.741 0 0 1 5.138 10.931v.001c12.111 32.444-.582 69.829-31.572 87.724l250.181-144.443.366-.21 62.179-35.9c34.544-19.945 46.379-64.114 26.437-98.657zM292.115 606.641l-36.11-62.547-62.545 36.111c-34.544 19.945-46.379 64.111-26.437 98.658 19.943 34.543 64.113 46.377 98.657 26.436 34.544-19.945 46.378-64.113 26.435-98.658z"/><path fill="#231F20" d="M613.311 430.785l-7.646-13.281.011-.006-42.129-72.968-42.128-72.97-3.324-5.763-1.69-2.925-42.131-72.97-7.021-12.161 58.201-33.603c17.865-10.316 30.649-26.972 35.987-46.899 5.341-19.928 2.601-40.741-7.715-58.608C539.967 14.803 514.31 0 486.769 0c-13.482 0-26.814 3.583-38.554 10.361L385.67 46.472l-.002-.004-250.176 144.443v.001l-.007.004c-17.864 10.313-30.644 26.968-35.982 46.896-5.341 19.928-2.602 40.742 7.715 58.608l3.511 6.082 47.146 81.656 37.113 64.283 42.13 72.969 12.035 20.848-58.199 33.604c-36.883 21.293-49.564 68.623-28.271 105.508 13.756 23.828 39.412 38.629 66.956 38.631h.002c13.479 0 26.812-3.582 38.551-10.359a.064.064 0 0 1 .018-.01l313.07-180.757c34.268-19.783 48.039-61.953 32.031-98.09zm-21.339-16.957l-18.1 10.449-285.94 165.088-30.092-52.123h-.001l-7.021-12.16L536.76 359.995l18.099-10.45 37.113 64.283zM453.231 19.048c10.219-5.899 21.812-9.017 33.538-9.017 23.968 0 46.296 12.88 58.269 33.616 8.976 15.545 11.359 33.656 6.712 50.996-4.646 17.34-15.768 31.832-31.312 40.808L240.803 296.897a76.839 76.839 0 0 0 9.944-48.962 77.427 77.427 0 0 0-2.878-13.029l.102-.06-1.466-3.931c-.006-.015-.011-.032-.019-.046l-.006-.016-2.065-5.537-.201.116a77.917 77.917 0 0 0-3.22-6.249c-13.757-23.827-39.414-38.629-66.956-38.629-.185 0-.365 0-.551.002L453.231 19.048zm-337.328 272.36c-8.975-15.547-11.358-33.659-6.713-50.999 4.647-17.34 15.768-31.833 31.313-40.808 10.215-5.899 21.812-9.017 33.536-9.017 5.244 0 10.408.616 15.402 1.797 17.839 4.215 33.513 15.62 42.864 31.819.537.93 1.043 1.875 1.534 2.83.147.29.289.584.434.876a59.31 59.31 0 0 1 1.207 2.568l-51.325 29.634-64.741 37.38-3.511-6.08zm8.528 14.765l44.734-25.828 69.769-40.28.015.045c.104.377.19.755.287 1.133.146.569.298 1.139.429 1.708.096.42.176.84.265 1.262.111.531.227 1.061.323 1.592.081.434.146.868.217 1.301.086.519.173 1.037.245 1.556.062.441.112.883.165 1.325.062.512.124 1.023.172 1.534.043.444.077.89.11 1.335.039.508.076 1.016.103 1.524.024.446.04.892.055 1.337a58.827 58.827 0 0 1 .035 2.851 65.09 65.09 0 0 1-.183 4.342 58.325 58.325 0 0 1-.272 2.82c-.051.434-.103.867-.162 1.298a58.734 58.734 0 0 1-.229 1.505c-.068.425-.135.852-.211 1.275a61.22 61.22 0 0 1-.298 1.513c-.084.414-.167.83-.26 1.242-.115.512-.243 1.022-.37 1.532-.1.398-.192.797-.3 1.193-.142.531-.301 1.057-.457 1.583-.109.371-.21.742-.326 1.11-.188.594-.393 1.183-.596 1.772-.101.293-.193.59-.299.883a64.355 64.355 0 0 1-.999 2.598c-.098.241-.208.477-.31.716-.264.621-.526 1.24-.808 1.853-.156.342-.327.679-.488 1.018-.241.503-.481 1.009-.735 1.507-.188.364-.384.724-.578 1.084-.248.466-.495.932-.753 1.392-.208.37-.428.734-.644 1.1-.263.442-.521.884-.792 1.321-.23.369-.468.733-.705 1.098-.275.424-.552.848-.836 1.266-.249.365-.504.724-.76 1.083-.291.409-.583.816-.883 1.218-.268.357-.539.71-.812 1.063a70.218 70.218 0 0 1-2.779 3.349 63.09 63.09 0 0 1-1.947 2.101c-.312.325-.629.65-.95.969-.359.358-.729.71-1.099 1.062-.326.31-.652.621-.985.924-.383.349-.773.69-1.166 1.03-.336.293-.671.589-1.015.876-.407.342-.825.671-1.241 1.003-.344.274-.684.551-1.034.818-.438.336-.89.662-1.34.988-.343.25-.68.503-1.028.746-.495.347-1.003.679-1.51 1.013-.316.209-.627.425-.948.63-.727.463-1.468.908-2.218 1.348-.107.062-.212.131-.32.194l5.016 8.687.006-.004.017-.008L366.1 236.138l92.461-53.382 7.021 12.162-12.336 7.123-291.702 168.416-37.113-64.284zm42.129 72.97l291.704-168.416 12.336-7.123 37.114 64.283-304.04 175.539-37.114-64.283zm79.242 137.253l-37.114-64.285 304.041-175.535 37.114 64.283-18.1 10.448-285.941 165.089zm17.37 184.557c-10.217 5.9-21.812 9.018-33.534 9.018h-.002c-23.97 0-46.297-12.881-58.27-33.615-18.526-32.094-7.492-73.275 24.6-91.805l58.202-33.605 10.972 19.004 22.631 39.201c18.529 32.091 7.492 73.275-24.599 91.802zm313.092-180.765L296.112 681.936c.311-.525.604-1.062.901-1.596.098-.176.2-.35.296-.523.508-.932.99-1.873 1.458-2.824.143-.287.28-.578.418-.867.384-.803.752-1.607 1.108-2.424.089-.203.183-.404.271-.607a76.66 76.66 0 0 0 1.5-3.818c.301-.824.588-1.65.86-2.484.074-.23.153-.457.226-.688.32-1.01.617-2.025.897-3.051.076-.283.147-.566.223-.854.22-.846.426-1.695.618-2.547.056-.25.117-.498.169-.748.223-1.039.423-2.082.604-3.131.047-.271.088-.551.133-.824.14-.863.264-1.73.372-2.6.034-.266.072-.531.104-.801.124-1.059.223-2.119.303-3.186.021-.262.032-.523.049-.787.059-.879.1-1.762.125-2.645.009-.277.021-.557.025-.836.021-1.072.02-2.146-.004-3.219-.006-.244-.02-.49-.026-.734a80.211 80.211 0 0 0-.133-2.684c-.021-.289-.036-.576-.059-.865a77.143 77.143 0 0 0-.319-3.232c-.027-.219-.061-.436-.088-.654a77.862 77.862 0 0 0-.405-2.725c-.049-.295-.096-.588-.146-.883a73.277 73.277 0 0 0-.644-3.219c-.042-.189-.091-.377-.134-.564a76.375 76.375 0 0 0-.695-2.762c-.08-.297-.158-.592-.243-.887a76.242 76.242 0 0 0-.974-3.189c-.049-.145-.104-.293-.154-.441a74.272 74.272 0 0 0-1.013-2.805 75.7 75.7 0 0 0-1.653-4.012c-.044-.102-.094-.197-.14-.297a77.64 77.64 0 0 0-1.808-3.714c-.521-1-1.055-1.996-1.624-2.982-.019-.031-.031-.062-.05-.092l-3.512-6.082 304.039-175.537 7.259 12.572c13.759 31.383 1.759 67.93-27.982 85.1z"/></svg>