<svg xmlns="http://www.w3.org/2000/svg" width="1024" height="1024" viewBox="0 0 1024 1024"><path fill="#FFF" d="M0 0h1024v1024H0z"/><path fill="#009DDC" d="M868.024 615.561l-5.523-9.57-8.562-14.828-444.767 256.786 8.562 14.83c28.36 49.129 11.53 111.943-37.6 140.312l88.953-51.357 88.954-51.357 267.382-154.373c45.889-26.498 63.591-83.061 42.601-130.443z"/><path fill="#963D97" d="M794.031 487.377l59.918 103.775-444.751 256.786-59.917-103.773 444.75-256.788z"/><path fill="#E03A3E" d="M734.116 383.599l59.917 103.775L349.28 744.16l-59.917-103.775 444.753-256.786z"/><path fill="#F5821F" d="M674.194 279.819l59.916 103.778-444.753 256.782-59.916-103.775 444.753-256.785z"/><path fill="#61BB46" d="M198.543 277.7c-49.128 28.364-65.96 91.182-37.6 140.312l8.562 14.827 176.653-101.992a102.91 102.91 0 0 0-7.31-15.548c-28.358-49.132-91.179-65.964-140.305-37.599z"/><path fill="#FDB827" d="M346.158 330.844L169.505 432.837l59.917 103.776 444.767-256.787-17.119-29.65-355.813 205.431c44.072-25.449 62.127-78.62 44.901-124.763z"/><path fill="#FFF" d="M783.622 58.509c-28.365-49.13-91.185-65.962-140.314-37.597l-88.952 51.356L198.543 277.7c49.127-28.365 111.947-11.533 140.308 37.597a103.466 103.466 0 0 1 7.31 15.546v.001c17.223 46.143-.828 99.312-44.903 124.763l355.812-205.43.521-.299 88.433-51.058c49.127-28.365 65.959-91.183 37.598-140.311zM417.732 862.777l-51.355-88.955-88.953 51.357c-49.129 28.365-65.961 91.182-37.6 140.312 28.364 49.129 91.184 65.959 140.312 37.598 49.129-28.364 65.96-91.181 37.596-140.312z"/><path fill="#231F20" d="M874.544 612.672l-10.875-18.889.017-.01-59.916-103.775-59.917-103.779-4.727-8.197-2.404-4.16-59.919-103.78-9.985-17.295 82.774-47.791c25.408-14.671 43.59-38.36 51.182-66.701 7.597-28.342 3.698-57.943-10.973-83.354C770.233 21.053 733.743 0 694.573 0c-19.176 0-38.137 5.096-54.832 14.735l-88.952 51.358-.003-.006-355.805 205.431v.001l-.012.006c-25.405 14.667-43.582 38.354-51.174 66.696-7.596 28.342-3.701 57.944 10.972 83.354l4.993 8.65 67.054 116.134 52.781 91.424 59.919 103.777 17.115 29.65-82.771 47.793c-52.457 30.283-70.492 97.598-40.208 150.057 19.563 33.889 56.053 54.938 95.227 54.939h.003c19.171 0 38.133-5.094 54.828-14.732a.073.073 0 0 1 .026-.014l445.253-257.076c48.74-28.136 68.324-88.111 45.557-139.505zm-30.349-24.117l-25.742 14.861-406.67 234.791-42.797-74.129h-.001l-9.986-17.295 406.673-234.791 25.74-14.862 52.783 91.425zM646.875 27.09c14.533-8.389 31.021-12.823 47.698-12.823 34.088 0 65.843 18.318 82.871 47.809 12.767 22.108 16.154 47.866 9.546 72.527-6.607 24.661-22.426 45.272-44.532 58.039L344.755 422.253a109.289 109.289 0 0 0 14.144-69.635 110.18 110.18 0 0 0-4.094-18.53l.146-.085-2.084-5.591c-.009-.021-.017-.046-.028-.065a.21.21 0 0 1-.008-.023l-2.938-7.875-.285.165a110.744 110.744 0 0 0-4.579-8.887c-19.566-33.888-56.056-54.94-95.227-54.94-.264 0-.52 0-.785.003l397.858-229.7zM167.119 414.447c-12.764-22.112-16.153-47.871-9.547-72.532 6.609-24.662 22.427-45.273 44.535-58.038 14.527-8.39 31.021-12.824 47.695-12.824 7.458 0 14.802.876 21.904 2.555 25.371 5.996 47.664 22.215 60.962 45.254a94.054 94.054 0 0 1 2.182 4.025c.208.412.411.831.617 1.246a81.152 81.152 0 0 1 1.717 3.652l-72.995 42.146-92.075 53.163-4.995-8.647zm12.13 20.999l63.622-36.733 99.227-57.287a.404.404 0 0 0 .022.064c.146.536.27 1.074.407 1.612.208.809.425 1.62.61 2.429.137.597.25 1.194.376 1.794.158.756.324 1.509.459 2.265.116.617.207 1.234.31 1.85.122.738.246 1.475.349 2.213.087.627.16 1.256.235 1.884.087.729.176 1.455.244 2.182.061.631.109 1.266.156 1.898.056.722.107 1.445.146 2.167.035.635.057 1.269.078 1.901a86.03 86.03 0 0 1 .05 4.054c-.008.715-.022 1.431-.042 2.146a91.255 91.255 0 0 1-.219 4.03 84.311 84.311 0 0 1-.388 4.011 76.728 76.728 0 0 1-.554 3.987c-.097.604-.192 1.211-.3 1.813-.129.718-.276 1.435-.423 2.152-.12.588-.238 1.18-.371 1.766a90.833 90.833 0 0 1-.525 2.179c-.143.566-.272 1.133-.428 1.696-.201.755-.428 1.503-.65 2.251-.153.528-.299 1.056-.462 1.579-.268.845-.56 1.683-.849 2.52-.144.417-.274.839-.425 1.255a87.89 87.89 0 0 1-1.421 3.695c-.14.343-.297.679-.44 1.019-.376.884-.749 1.764-1.15 2.635-.221.487-.465.966-.692 1.449-.343.715-.686 1.435-1.046 2.143-.269.518-.546 1.029-.822 1.542-.353.663-.704 1.325-1.071 1.98-.296.526-.607 1.044-.915 1.564-.375.629-.741 1.257-1.126 1.879-.328.524-.667 1.042-1.003 1.562-.392.604-.786 1.206-1.188 1.8-.354.519-.719 1.03-1.082 1.54a97.928 97.928 0 0 1-1.255 1.733c-.381.507-.768 1.009-1.154 1.512a82.02 82.02 0 0 1-1.332 1.673 95.157 95.157 0 0 1-3.911 4.518 93.986 93.986 0 0 1-1.479 1.56c-.443.462-.896.924-1.352 1.378a93.3 93.3 0 0 1-1.562 1.511c-.464.441-.929.883-1.401 1.313a80.3 80.3 0 0 1-1.659 1.465c-.478.417-.954.837-1.442 1.246-.579.486-1.175.954-1.766 1.426-.489.39-.972.783-1.471 1.163-.622.479-1.265.942-1.905 1.406-.488.355-.967.715-1.461 1.061-.704.494-1.426.966-2.147 1.441-.449.297-.893.604-1.348.896a100.619 100.619 0 0 1-3.155 1.917c-.151.088-.302.186-.454.276l7.133 12.354.008-.005.025-.011 218.1-125.925 131.5-75.921 9.984 17.297-17.545 10.131-414.867 239.524-52.783-91.425zm59.916 103.779l414.868-239.523 17.544-10.131 52.784 91.424L291.95 630.648l-52.785-91.423zm112.7 195.205l-52.785-91.428 432.414-249.649 52.784 91.424-25.742 14.86L351.865 734.43zm24.705 262.48c-14.531 8.393-31.022 12.826-47.693 12.826h-.002c-34.09 0-65.845-18.32-82.873-47.809-26.349-45.646-10.655-104.215 34.986-130.566l82.775-47.793 15.604 27.025 32.186 55.754c26.354 45.641 10.656 104.214-34.983 130.563zm445.285-257.088L423.416 969.863c.443-.746.86-1.512 1.282-2.27.139-.25.285-.498.421-.744a108.788 108.788 0 0 0 2.074-4.016c.203-.41.397-.822.594-1.234a112.701 112.701 0 0 0 1.577-3.445c.126-.289.26-.576.385-.865a111.122 111.122 0 0 0 2.134-5.427c.428-1.172.836-2.348 1.225-3.533.104-.328.216-.65.32-.979.456-1.438.877-2.881 1.276-4.34.106-.402.208-.805.316-1.215.312-1.203.604-2.41.879-3.621.079-.355.167-.709.239-1.064.316-1.479.603-2.961.858-4.451.066-.389.125-.785.19-1.174.198-1.229.375-2.461.528-3.697.047-.379.103-.754.147-1.139.176-1.508.315-3.016.43-4.531.031-.373.046-.744.07-1.119a95.97 95.97 0 0 0 .178-3.764c.014-.393.03-.791.036-1.188.03-1.523.029-3.053-.006-4.578-.008-.348-.028-.697-.037-1.045a110.731 110.731 0 0 0-.189-3.816c-.028-.41-.052-.818-.083-1.23-.12-1.529-.27-3.061-.454-4.596-.039-.312-.086-.621-.125-.932a108.43 108.43 0 0 0-.576-3.875l-.207-1.256a105.575 105.575 0 0 0-.917-4.578c-.061-.268-.129-.537-.19-.801a106.987 106.987 0 0 0-.989-3.93c-.113-.422-.224-.842-.344-1.262a109.72 109.72 0 0 0-1.386-4.535c-.069-.205-.147-.418-.219-.627-.449-1.334-.933-2.66-1.44-3.988a105.932 105.932 0 0 0-2.351-5.707c-.062-.146-.134-.279-.198-.422a107.002 107.002 0 0 0-1.949-4.061c-.206-.41-.414-.816-.622-1.223-.742-1.422-1.5-2.84-2.31-4.242-.026-.043-.044-.088-.071-.131l-4.994-8.65 432.409-249.65 10.323 17.879c19.571 44.633 2.504 96.611-39.795 121.031z"/></svg>