<svg xmlns="http://www.w3.org/2000/svg" width="519.442" height="715.793" viewBox="0 0 519.442 715.793"><path fill="#963D97" d="M457.434 340.636l42 72.744-311.759 180-42-72.744z"/><path fill="#231F20" d="M185.828 600.219l-47-81.406 320.429-185 47 81.406-320.429 185zm-33.34-77.746l37 64.086 303.108-175-37-64.086-303.108 175z"/><path fill="#E03A3E" d="M415.434 267.891l42 72.744-311.76 180-42-72.744z"/><path fill="#231F20" d="M143.828 527.473l-47-81.407 320.43-184.999 46.999 81.406-320.429 185zm-33.34-77.747l37 64.086 303.108-175-36.999-64.086-303.109 175z"/><path fill="#F5821F" d="M373.43 195.144l42 72.744-311.759 180-42-72.744z"/><path fill="#231F20" d="M101.828 454.726l-47-81.406 320.429-185 47.001 81.407-320.43 184.999zm-33.34-77.746l37 64.086 303.109-174.999-37.001-64.087-303.108 175z"/><path fill="#61BB46" d="M289.427 49.658L40.012 193.659 289.427 49.658z"/><path fill="#231F20" d="M286.925 45.324l5 8.66-249.408 144-5-8.66z"/><path fill="#61BB46" d="M40.012 193.659c-34.437 19.882-46.236 63.916-26.354 98.354l6 10.393 123.829-71.493a72.351 72.351 0 0 0-5.122-10.899c-19.882-34.439-63.916-46.238-98.353-26.355z"/><path fill="#231F20" d="M17.828 309.235l-8.5-14.723C-.956 276.7-3.688 255.95 1.636 236.083s18.064-36.471 35.876-46.754C49.215 182.572 62.505 179 75.945 179c27.458 0 53.036 14.757 66.75 38.512a77.699 77.699 0 0 1 5.476 11.651l1.479 3.963-131.822 76.109zM75.945 189c-11.688 0-23.249 3.108-33.434 8.989-15.499 8.948-26.585 23.396-31.217 40.683-4.632 17.286-2.255 35.342 6.693 50.841l3.5 6.062 115.723-66.813a66.422 66.422 0 0 0-3.176-6.249C122.101 201.841 99.842 189 75.945 189z"/><g><path fill="#FDB827" d="M143.487 230.912L19.658 302.405l42 72.745 311.769-180-12-20.784-249.415 144c30.894-17.838 43.55-55.11 31.475-87.454z"/><path fill="#231F20" d="M59.828 381.98l-47-81.405 133.277-76.949 2.066 5.536c8.366 22.411 5.728 46.435-5.669 65.827l220.755-127.453 17 29.444-320.429 185zm-33.34-77.745l37 64.085 303.108-175-7-12.124-245.067 141.49-.018.01-5-8.66c26.707-15.42 39.198-46.53 31.13-75.708L26.488 304.235z"/></g><g><path fill="#FFF" d="M450.135 40.012c-19.883-34.438-63.916-46.236-98.354-26.354l-62.354 35.999L40.012 193.659c34.438-19.883 78.472-8.084 98.354 26.354a72.484 72.484 0 0 1 5.122 10.898v.001c12.075 32.345-.581 69.616-31.476 87.454l249.415-144 .365-.21 61.988-35.79c34.438-19.883 46.238-63.917 26.355-98.354z"/><path fill="#231F20" d="M114.512 322.696l-5-8.66c28.444-16.423 40.763-50.646 29.292-81.375a67.748 67.748 0 0 0-4.768-10.148C122.101 201.841 99.842 189 75.945 189c-11.688 0-23.249 3.108-33.434 8.989l-5-8.66 311.77-180C360.984 2.572 374.274-1 387.715-1c27.458 0 53.035 14.757 66.75 38.512 10.284 17.812 13.016 38.562 7.692 58.429-5.323 19.866-18.064 36.471-35.877 46.755L114.533 322.684l-.021.012zM75.945 179c27.458 0 53.036 14.757 66.75 38.512a77.775 77.775 0 0 1 5.476 11.649c8.366 22.411 5.727 46.436-5.67 65.827L421.28 134.036c15.499-8.949 26.586-23.396 31.218-40.683s2.255-35.342-6.693-50.84C433.87 21.841 411.611 9 387.715 9c-11.688 0-23.248 3.108-33.434 8.989L75.397 179.002c.184-.002.365-.002.548-.002z"/></g><g><path fill="#009DDC" d="M509.3 430.489l-3.873-6.707-6-10.393-311.769 180 6 10.393c19.882 34.438 8.084 78.471-26.354 98.354l62.354-36 62.354-36 187.426-108.211c32.169-18.573 44.575-58.222 29.862-91.436z"/><path fill="#231F20" d="M169.804 706.465l-5-8.66c31.994-18.472 42.996-59.529 24.524-91.523l-8.5-14.723 320.429-185 12.614 21.905c15.959 36.026 2.23 78.066-31.934 97.79L169.804 706.465zm24.684-111.246l3.5 6.062c14.341 24.84 13.224 54.432-.346 77.564l279.295-161.252c29.65-17.118 41.612-53.552 27.896-84.84l-7.237-12.535-303.108 175.001z"/></g><g><path fill="#FFF" d="M193.658 603.781l-36-62.355-62.354 36.002c-34.438 19.883-46.236 63.914-26.354 98.354 19.882 34.438 63.917 46.236 98.354 26.354 34.438-19.884 46.236-63.917 26.354-98.355z"/><path fill="#231F20" d="M131.373 716.793h-.002c-27.459-.001-53.036-14.758-66.75-38.512-21.228-36.771-8.584-83.955 28.184-105.184l66.684-38.502 38.5 66.686c21.229 36.77 8.585 83.955-28.184 105.184-11.703 6.757-24.994 10.328-38.432 10.328zm24.455-168.537l-58.024 33.502C65.811 600.23 54.81 641.286 73.28 673.281c11.934 20.67 34.193 33.512 58.09 33.512h.002c11.686 0 23.246-3.107 33.431-8.988 31.994-18.472 42.996-59.529 24.524-91.523l-33.499-58.026z"/></g></svg>