<svg xmlns="http://www.w3.org/2000/svg" width="1024" height="1024" viewBox="0 0 1024 1024"><path fill="#009DDC" d="M868.023 615.56l-5.522-9.568-8.56-14.828L409.17 847.95l8.562 14.83c28.36 49.128 11.53 111.94-37.6 140.31l88.952-51.355 88.954-51.357 267.382-154.373c45.89-26.5 63.592-83.062 42.6-130.444z"/><path fill="#963D97" d="M794.03 487.377l59.92 103.775-444.752 256.786-59.917-103.772 444.75-256.79z"/><path fill="#E03A3E" d="M734.116 383.6l59.917 103.774L349.28 744.16l-59.917-103.775L734.116 383.6z"/><path fill="#F5821F" d="M674.194 279.82l59.916 103.777L289.357 640.38 229.44 536.603 674.195 279.82z"/><path fill="#61BB46" d="M198.543 277.7c-49.128 28.364-65.96 91.182-37.6 140.312l8.562 14.827 176.653-101.993c-2-5.377-4.444-10.58-7.31-15.548-28.358-49.133-91.18-65.965-140.305-37.6z"/><path fill="#FDB827" d="M346.158 330.844L169.505 432.837l59.917 103.776L674.19 279.826l-17.12-29.65-355.813 205.43c44.072-25.448 62.127-78.62 44.9-124.762z"/><path fill="#FFFFFF" d="M783.622 58.51C755.257 9.38 692.437-7.454 643.308 20.91l-88.952 51.356L198.543 277.7c49.127-28.365 111.947-11.533 140.31 37.597 2.862 4.97 5.307 10.17 7.31 15.546 17.222 46.145-.83 99.313-44.904 124.765l355.81-205.43.52-.3 88.434-51.058c49.127-28.365 65.958-91.183 37.598-140.31zm-365.89 804.267l-51.355-88.955-88.953 51.356c-49.13 28.365-65.96 91.183-37.6 140.312 28.364 49.13 91.184 65.96 140.312 37.598 49.13-28.363 65.96-91.18 37.596-140.31z"/><path fill="#231F20" d="M874.544 612.672l-10.875-18.89.016-.01L803.77 490l-59.916-103.78-4.728-8.196-2.404-4.16-59.92-103.78-9.983-17.295 82.772-47.79c25.408-14.672 43.59-38.36 51.183-66.702 7.597-28.342 3.697-57.943-10.974-83.354C770.233 21.054 733.744 0 694.574 0c-19.177 0-38.138 5.096-54.832 14.735l-88.95 51.358-.004-.006-355.805 205.43v.002l-.01.005c-25.406 14.667-43.583 38.354-51.175 66.696-7.596 28.343-3.7 57.945 10.972 83.355l4.993 8.65 67.054 116.134 52.78 91.423 59.92 103.777 17.115 29.65L273.857 819c-52.457 30.283-70.492 97.6-40.208 150.058 19.563 33.89 56.053 54.938 95.227 54.938h.003c19.17 0 38.133-5.094 54.828-14.73.008-.008.017-.013.026-.016l445.253-257.076c48.74-28.135 68.324-88.11 45.557-139.504zm-30.35-24.117l-25.74 14.86-406.67 234.792-42.798-74.13-9.987-17.294 406.672-234.79 25.74-14.863 52.783 91.425zM646.875 27.09c14.534-8.39 31.022-12.823 47.7-12.823 34.087 0 65.842 18.318 82.87 47.81 12.767 22.107 16.153 47.865 9.546 72.526s-22.426 45.272-44.532 58.04l-397.703 229.61c12.34-20.988 17.317-45.496 14.145-69.635-.83-6.283-2.2-12.483-4.095-18.53l.146-.085-2.083-5.59c-.01-.022-.018-.047-.028-.066l-.01-.022-2.937-7.875-.284.165c-1.394-3.03-2.92-5.995-4.58-8.887-19.566-33.888-56.056-54.94-95.228-54.94-.264 0-.52 0-.785.003l397.858-229.7zM167.12 414.447c-12.765-22.112-16.154-47.87-9.548-72.532 6.61-24.662 22.427-45.273 44.535-58.038 14.527-8.39 31.02-12.824 47.695-12.824 7.458 0 14.802.876 21.904 2.555 25.37 5.996 47.664 22.215 60.962 45.254.76 1.324 1.487 2.666 2.182 4.025.208.412.41.83.617 1.246.603 1.203 1.176 2.42 1.717 3.652L264.19 369.93l-92.076 53.164-4.995-8.647zm12.13 21l63.62-36.734 99.228-57.287c.006.022.014.043.022.064.146.536.27 1.074.407 1.612.208.81.425 1.62.61 2.43.136.596.25 1.193.375 1.793.158.756.324 1.51.46 2.265.115.617.206 1.234.31 1.85.122.738.246 1.475.35 2.213.086.627.16 1.256.234 1.884.087.73.176 1.455.244 2.182.06.63.108 1.265.155 1.897.057.722.107 1.445.146 2.167.036.635.058 1.27.08 1.9.047 1.352.063 2.704.05 4.055-.01.714-.023 1.43-.043 2.145-.043 1.345-.116 2.688-.22 4.03-.097 1.34-.226 2.677-.388 4.01-.15 1.335-.335 2.664-.555 3.988-.097.604-.192 1.21-.3 1.813-.13.718-.276 1.435-.423 2.152-.12.588-.238 1.18-.37 1.766-.167.73-.342 1.455-.526 2.18-.143.564-.27 1.132-.428 1.695-.2.754-.428 1.502-.65 2.25-.152.528-.3 1.056-.462 1.58-.268.844-.56 1.682-.85 2.52-.143.416-.273.838-.424 1.254-.446 1.242-.92 2.474-1.42 3.695-.142.342-.3.678-.44 1.018-.377.884-.75 1.764-1.15 2.635-.222.487-.466.966-.692 1.45-.343.714-.687 1.434-1.046 2.142-.27.518-.546 1.03-.822 1.542-.353.663-.704 1.325-1.07 1.98-.297.526-.607 1.044-.916 1.564-.375.63-.74 1.258-1.126 1.88-.328.523-.667 1.042-1.003 1.562-.392.604-.786 1.206-1.188 1.8-.355.52-.72 1.03-1.083 1.54-.412.583-.83 1.16-1.255 1.733-.38.507-.77 1.01-1.154 1.512-.437.563-.88 1.12-1.332 1.673-1.256 1.547-2.56 3.054-3.91 4.52-.488.524-.98 1.045-1.48 1.56-.443.46-.896.923-1.353 1.377-.515.51-1.035 1.014-1.562 1.512-.463.44-.928.882-1.4 1.31-.546.497-1.1.985-1.66 1.466-.477.417-.953.837-1.44 1.246-.58.486-1.175.954-1.767 1.426-.488.39-.972.783-1.47 1.163-.623.48-1.266.943-1.906 1.407-.487.355-.967.715-1.46 1.06-.705.495-1.427.968-2.147 1.442-.45.296-.894.603-1.35.895-1.038.658-2.09 1.297-3.154 1.917-.15.088-.302.186-.454.275l7.133 12.354.008-.004.025-.012 218.1-125.925 131.5-75.922 9.984 17.297-17.545 10.13-414.865 239.526-52.783-91.424zm59.915 103.778l414.868-239.522 17.544-10.13 52.784 91.423-432.41 249.652-52.785-91.423zm112.7 195.205l-52.785-91.428 432.414-249.65 52.784 91.425-25.742 14.86-406.67 234.793zm24.705 262.48c-14.53 8.393-31.022 12.826-47.693 12.826h-.002c-34.09 0-65.845-18.32-82.873-47.81-26.35-45.646-10.655-104.215 34.986-130.565l82.774-47.792 15.604 27.024 32.186 55.754c26.355 45.642 10.657 104.215-34.982 130.564zm445.285-257.088l-398.44 230.04c.444-.745.86-1.512 1.283-2.27.14-.25.285-.498.42-.744.72-1.324 1.41-2.663 2.075-4.016.203-.41.396-.822.594-1.234.545-1.14 1.07-2.288 1.577-3.444.126-.29.26-.576.385-.865.758-1.79 1.47-3.6 2.133-5.428.428-1.173.836-2.35 1.226-3.533.103-.33.215-.65.318-.98.456-1.438.877-2.88 1.276-4.34.106-.402.208-.805.315-1.215.31-1.203.603-2.41.88-3.62.078-.355.166-.71.237-1.065.316-1.48.604-2.96.858-4.45.066-.39.125-.785.19-1.175.197-1.23.374-2.46.527-3.696.047-.38.104-.755.147-1.14.175-1.51.313-3.017.43-4.53.03-.374.045-.745.07-1.12.083-1.254.142-2.51.177-3.765.014-.393.03-.79.036-1.188.03-1.523.028-3.053-.006-4.578-.01-.35-.028-.698-.037-1.046-.04-1.273-.104-2.545-.19-3.816-.026-.41-.05-.817-.082-1.23-.12-1.528-.27-3.06-.454-4.595-.038-.312-.086-.62-.125-.933-.17-1.295-.36-2.587-.576-3.875l-.207-1.256c-.272-1.533-.578-3.06-.917-4.58-.062-.267-.13-.536-.19-.8-.305-1.316-.635-2.626-.99-3.93-.11-.422-.223-.842-.343-1.263-.43-1.52-.892-3.033-1.386-4.534-.068-.205-.146-.418-.218-.627-.45-1.334-.934-2.66-1.44-3.988-.728-1.925-1.512-3.828-2.35-5.707-.063-.145-.136-.278-.2-.42-.62-1.368-1.27-2.723-1.948-4.063-.206-.41-.414-.815-.622-1.223-.742-1.422-1.5-2.84-2.31-4.242-.026-.043-.044-.088-.07-.13l-4.995-8.65 432.41-249.65 10.322 17.88c19.57 44.632 2.504 96.61-39.795 121.03z"/></svg>